<svg width="430" height="880" viewBox="0 0 430 880" fill="none" xmlns="http://www.w3.org/2000/svg">
  <path fill-rule="evenodd" clip-rule="evenodd" d="M88 4H342C388.392 4 426 41.6081 426 88V792C426 838.392 388.392 876 342 876H88C41.6081 876 4 838.392 4 792V88C4 41.6081 41.6081 4 88 4ZM92 31C58.3106 31 31 58.3106 31 92V788C31 821.689 58.3106 849 92 849H338C371.689 849 399 821.689 399 788V92C399 58.3106 371.689 31 338 31H92Z" fill="#111820"/>
  <path d="M153 31H277V45C277 60.464 264.464 73 249 73H181C165.536 73 153 60.464 153 45V31Z" fill="#111820"/>
  <rect x="180" y="44" width="70" height="7" rx="3.5" fill="#2A3440"/>
  <circle cx="266" cy="47.5" r="4.5" fill="#2A3440"/>
  <path d="M11 184C4.92487 184 0 188.925 0 195V263C0 269.075 4.92487 274 11 274V184Z" fill="#111820"/>
  <path d="M430 230C436.075 230 441 234.925 441 241V331C441 337.075 436.075 342 430 342V230Z" fill="#111820"/>
  <path d="M430 358C436.075 358 441 362.925 441 369V459C441 465.075 436.075 470 430 470V358Z" fill="#111820"/>
  <rect x="5.5" y="5.5" width="419" height="869" rx="82.5" stroke="#29333F" stroke-opacity="0.55" stroke-width="3"/>
  <rect x="31.5" y="31.5" width="367" height="817" rx="60.5" stroke="white" stroke-opacity="0.1"/>
</svg>
